<?xml version="1.0" standalone="no"?>
<!DOCTYPE svg PUBLIC "-//W3C//DTD SVG 20010904//EN"
 "http://www.w3.org/TR/2001/REC-SVG-20010904/DTD/svg10.dtd">
<svg version="1.0" xmlns="http://www.w3.org/2000/svg"
 width="577.000000pt" height="433.000000pt" viewBox="0 0 577.000000 433.000000"
 preserveAspectRatio="xMidYMid meet">

<g transform="translate(0.000000,433.000000) scale(0.100000,-0.100000)"
fill="#000000" stroke="none">
<path d="M1085 3249 c7 -115 7 -118 -18 -151 -38 -49 -109 -179 -103 -186 8
-7 6 -9 50 73 75 137 73 138 79 -48 13 -372 30 -778 36 -869 5 -83 8 -96 21
-88 13 8 15 53 15 307 0 300 -16 536 -51 743 -21 126 -20 135 20 154 49 23 70
20 140 -19 94 -52 210 -48 136 5 -55 39 -57 57 -14 101 l38 39 -59 -2 c-46 -2
-70 3 -105 21 -28 15 -72 26 -118 30 l-74 7 7 -117z"/>
<path d="M1150 3051 c0 -43 14 -114 46 -231 72 -267 76 -337 36 -580 -17 -102
-34 -211 -37 -243 -6 -57 -6 -58 17 -53 48 11 166 25 255 32 l92 7 7 41 c11
63 8 284 -5 354 -16 84 -56 202 -96 282 -30 60 -200 299 -281 395 l-33 40 -1
-44z"/>
<path d="M766 2833 c-9 -23 33 -241 50 -258 8 -7 40 -19 72 -25 31 -6 64 -13
73 -16 25 -7 35 14 54 105 9 46 23 101 30 121 l13 37 -132 27 c-157 31 -152
30 -160 9z"/>
<path d="M1914 2548 c-4 -7 2 -18 14 -26 21 -14 22 -22 22 -137 0 -114 -1
-123 -20 -128 -11 -3 -20 -12 -20 -21 0 -14 16 -16 105 -16 120 0 155 12 175
59 16 39 6 76 -25 97 l-25 16 26 25 c22 20 25 30 21 60 -8 49 -26 64 -84 74
-75 12 -181 11 -189 -3z m200 -54 c39 -39 7 -84 -60 -84 l-44 0 0 50 0 50 44
0 c27 0 51 -6 60 -16z m4 -140 c28 -20 28 -58 0 -78 -12 -9 -42 -16 -65 -16
l-43 0 0 55 0 55 43 0 c23 0 53 -7 65 -16z"/>
<path d="M2227 2554 c-13 -13 -7 -32 12 -37 17 -4 20 -16 23 -115 3 -107 4
-112 33 -142 36 -37 87 -52 138 -40 80 18 107 68 107 200 0 71 3 92 15 96 8 4
15 15 15 26 0 17 -6 19 -62 16 -49 -2 -63 -7 -66 -20 -2 -9 5 -19 17 -23 19
-6 21 -14 21 -98 0 -100 -11 -130 -56 -147 -28 -11 -71 2 -90 28 -9 11 -13 51
-14 115 0 91 2 99 20 104 13 3 20 12 18 22 -2 12 -17 17 -64 19 -33 2 -63 0
-67 -4z"/>
<path d="M2658 2545 c-34 -19 -48 -44 -48 -87 0 -47 16 -64 85 -91 52 -20 60
-27 63 -52 5 -37 -19 -55 -70 -55 -34 0 -40 4 -50 30 -14 42 -32 33 -36 -18
-3 -45 -9 -40 73 -57 45 -10 104 13 125 48 41 66 14 124 -69 152 -63 21 -78
37 -63 70 10 21 18 25 57 25 39 0 45 -3 51 -25 3 -14 12 -25 20 -25 17 0 20
75 4 85 -25 15 -116 15 -142 0z"/>
<path d="M2850 2542 c0 -11 7 -22 15 -26 12 -4 15 -28 15 -130 0 -101 -3 -125
-15 -130 -8 -3 -15 -12 -15 -21 0 -12 13 -15 65 -15 53 0 65 3 65 16 0 9 -9
18 -20 21 -19 5 -20 14 -20 128 0 116 1 124 21 130 12 4 19 14 17 23 -3 13
-17 18 -66 20 -56 3 -62 1 -62 -16z"/>
<path d="M3010 2541 c0 -10 7 -21 15 -25 12 -4 15 -28 15 -130 0 -101 -3 -125
-15 -130 -8 -3 -15 -12 -15 -21 0 -12 13 -15 65 -15 53 0 65 3 65 16 0 9 -9
18 -20 21 -18 5 -20 14 -20 83 0 43 -3 85 -6 94 -15 39 18 7 100 -99 69 -89
94 -115 112 -115 l24 0 0 145 c0 120 3 147 15 151 8 4 15 15 15 26 0 17 -6 19
-62 16 -67 -3 -86 -20 -44 -39 25 -12 26 -15 26 -106 0 -51 -2 -93 -4 -93 -2
0 -41 48 -86 106 -106 135 -105 134 -146 134 -27 0 -34 -4 -34 -19z"/>
<path d="M3397 2553 c-13 -13 -7 -32 13 -38 19 -6 20 -15 20 -130 0 -114 -1
-123 -20 -128 -11 -3 -20 -12 -20 -21 0 -14 17 -16 125 -16 l125 0 0 40 c0 30
-4 40 -16 40 -9 0 -18 -9 -21 -20 -5 -17 -14 -20 -59 -20 l-54 0 0 55 0 55 55
0 c48 0 55 2 55 20 0 18 -7 20 -55 20 l-55 0 0 50 0 50 54 0 c46 0 56 -3 61
-20 12 -39 35 -23 35 25 l0 45 -118 0 c-65 0 -122 -3 -125 -7z"/>
<path d="M3728 2545 c-34 -19 -48 -44 -48 -87 0 -47 16 -64 85 -91 52 -20 60
-27 63 -52 5 -37 -19 -55 -71 -55 -34 0 -40 4 -50 30 -17 46 -37 38 -37 -15 0
-40 3 -45 25 -50 14 -3 36 -7 50 -10 45 -10 104 13 125 48 41 66 14 122 -74
154 -88 32 -90 85 -3 91 42 3 47 1 53 -22 3 -15 12 -26 20 -26 17 0 20 75 4
85 -25 15 -116 15 -142 0z"/>
<path d="M3985 2551 c-50 -22 -76 -86 -52 -131 8 -15 32 -33 64 -45 28 -12 58
-27 67 -34 37 -31 3 -81 -55 -81 -41 0 -55 9 -60 34 -2 11 -10 21 -16 24 -9 2
-13 -10 -13 -41 0 -52 10 -59 90 -60 59 -1 96 22 116 70 24 57 9 82 -71 123
-41 21 -71 42 -73 53 -6 30 17 47 64 47 40 0 44 -2 44 -25 0 -18 5 -25 20 -25
17 0 20 7 20 39 0 22 -5 43 -10 46 -18 11 -114 15 -135 6z"/>
<path d="M4330 2538 c-30 -20 -35 -30 -38 -68 -4 -58 10 -75 83 -103 54 -21
60 -26 63 -54 4 -39 -21 -56 -76 -51 -29 2 -40 9 -50 31 -19 40 -32 33 -32
-18 0 -40 3 -45 28 -52 50 -12 116 -7 144 11 17 11 33 34 40 58 15 52 -2 86
-57 111 -78 35 -90 43 -93 60 -6 30 17 47 63 47 37 0 44 -3 49 -25 11 -41 36
-31 36 14 0 47 -5 51 -73 58 -44 4 -58 1 -87 -19z"/>
<path d="M4524 2549 c-4 -8 1 -18 14 -27 21 -14 22 -22 22 -138 0 -99 -3 -124
-14 -124 -12 0 -26 -20 -26 -36 0 -2 32 -4 70 -4 57 0 70 3 70 16 0 9 -9 18
-20 21 -17 5 -20 14 -20 60 l0 54 81 -3 82 -3 0 -49 c0 -35 -5 -51 -17 -58 -9
-5 -16 -16 -16 -23 0 -12 15 -15 65 -15 52 0 65 3 65 15 0 9 -7 18 -15 21 -12
5 -15 29 -15 130 0 102 3 126 15 130 8 4 15 15 15 26 0 17 -6 19 -62 16 -49
-2 -63 -7 -66 -20 -2 -9 5 -19 15 -22 14 -5 18 -16 17 -53 l-1 -48 -82 -3 -81
-3 0 52 c0 43 3 52 20 56 13 3 20 12 18 22 -4 20 -122 29 -134 10z"/>
<path d="M4917 2553 c-13 -13 -7 -32 13 -38 19 -6 20 -15 20 -130 0 -114 -1
-123 -20 -128 -11 -3 -20 -12 -20 -21 0 -13 12 -16 65 -16 52 0 65 3 65 15 0
9 -7 18 -15 21 -12 5 -15 29 -15 130 0 102 3 126 15 130 8 4 15 15 15 25 0 16
-8 19 -58 19 -32 0 -62 -3 -65 -7z"/>
<path d="M5077 2553 c-13 -13 -7 -32 13 -38 19 -6 20 -15 20 -130 0 -114 -1
-123 -20 -128 -11 -3 -20 -12 -20 -21 0 -13 12 -16 65 -16 52 0 65 3 65 15 0
9 -7 18 -15 21 -10 4 -15 20 -15 44 l0 38 57 4 c48 4 61 10 85 37 58 65 26
154 -62 172 -54 10 -164 12 -173 2z m185 -60 c21 -19 24 -61 5 -87 -7 -9 -32
-20 -55 -23 l-42 -6 0 67 0 66 37 0 c20 0 45 -7 55 -17z"/>
<path d="M730 2516 c0 -19 32 -199 45 -253 4 -18 20 -27 75 -44 38 -11 90 -21
115 -22 l46 -2 30 115 c16 63 29 125 29 137 0 24 4 23 -145 44 -44 6 -106 19
-137 29 l-58 18 0 -22z"/>
<path d="M566 2362 c-96 -139 -184 -248 -243 -300 -35 -30 -63 -59 -63 -63 0
-9 92 -39 225 -72 130 -33 165 -39 165 -27 0 6 -7 65 -15 133 -8 67 -19 181
-23 254 l-7 132 -39 -57z"/>
<path d="M683 2138 c6 -62 51 -255 62 -266 3 -3 65 -6 137 -6 106 -1 132 2
138 14 13 25 72 222 67 226 -2 2 -46 11 -98 20 -52 9 -135 29 -185 45 -130 41
-128 42 -121 -33z"/>
<path d="M1602 1997 c0 -21 -5 -43 -12 -47 -6 -4 -64 -10 -128 -13 -113 -6
-194 -21 -240 -46 -19 -10 -22 -20 -22 -66 0 -29 3 -56 8 -59 4 -2 97 29 207
70 193 73 335 138 335 154 0 9 -76 35 -122 43 -25 4 -27 2 -26 -36z"/>
<path d="M105 1970 c-8 -27 11 -60 99 -170 85 -107 133 -192 166 -295 39 -125
20 -112 177 -120 185 -10 399 0 493 24 41 10 163 44 270 76 107 31 204 59 215
63 34 9 93 53 118 86 21 28 114 236 132 294 8 28 -2 28 -57 -3 -53 -30 -423
-181 -494 -202 -32 -10 -65 -13 -87 -9 -31 6 -37 13 -57 61 -21 51 -24 54 -49
47 -14 -4 -78 -6 -141 -5 -168 3 -408 54 -635 137 -114 41 -141 44 -150 16z"/>
<path d="M1130 1912 c0 -15 -7 -37 -15 -48 -23 -34 9 -112 48 -114 11 0 9 134
-3 164 -13 34 -30 33 -30 -2z"/>
</g>
</svg>
