<?xml version="1.0" standalone="no"?>
<!DOCTYPE svg PUBLIC "-//W3C//DTD SVG 20010904//EN"
 "http://www.w3.org/TR/2001/REC-SVG-20010904/DTD/svg10.dtd">
<svg version="1.0" xmlns="http://www.w3.org/2000/svg"
 width="1024.000000pt" height="1024.000000pt" viewBox="0 0 1024.000000 1024.000000"
 preserveAspectRatio="xMidYMid meet">

<g transform="translate(0.000000,1024.000000) scale(0.100000,-0.100000)"
fill="#000000" stroke="none">
<path d="M5575 9808 c2 -51 7 -178 10 -283 3 -104 10 -251 16 -325 9 -125 8
-136 -8 -150 -17 -15 -37 -44 -184 -272 -84 -131 -231 -398 -258 -470 -10 -27
-9 -28 28 -28 37 0 38 1 86 93 144 276 203 378 274 473 34 45 61 86 61 92 0 6
4 13 9 17 6 3 9 -37 8 -97 -3 -152 13 -815 19 -835 5 -16 4 -16 -6 -3 -16 21
-5 -629 16 -885 8 -104 19 -243 24 -307 5 -65 12 -206 15 -315 3 -109 7 -241
10 -293 3 -52 12 -230 20 -395 8 -165 18 -334 22 -375 7 -88 10 -163 12 -340
0 -77 5 -130 11 -130 5 0 16 13 25 30 19 37 54 58 66 39 6 -11 9 -11 13 1 9
27 38 343 47 515 13 252 3 1142 -15 1360 -46 548 -57 666 -65 730 -6 39 -13
108 -16 155 -3 47 -10 102 -16 122 -12 46 -49 440 -49 528 0 36 -13 130 -29
210 -40 203 -75 453 -67 484 3 14 11 26 17 26 6 0 33 16 60 36 58 42 88 52
199 64 77 8 90 7 153 -15 39 -13 99 -46 140 -76 146 -107 268 -148 427 -143
122 4 200 29 200 63 0 11 -38 46 -91 86 -112 83 -147 118 -179 179 l-25 47 30
22 c17 12 41 34 55 49 14 15 63 66 110 113 l85 86 -145 -7 c-80 -3 -159 -9
-177 -14 -20 -5 -40 -4 -56 5 -13 7 -40 15 -60 19 -19 4 -90 33 -156 66 -177
87 -253 111 -364 114 -50 2 -119 -3 -151 -9 -57 -12 -61 -11 -85 11 -14 13
-36 24 -48 24 -23 0 -23 -2 -18 -92z m415 32 c0 -5 -4 -10 -10 -10 -5 0 -10 5
-10 10 0 6 5 10 10 10 6 0 10 -4 10 -10z m-353 -1897 c-3 -10 -5 -4 -5 12 0
17 2 24 5 18 2 -7 2 -21 0 -30z m11 -105 c-1 -77 -1 -79 -9 -33 -10 71 -11
115 0 115 5 0 9 -37 9 -82z m-1 -150 c-2 -13 -4 -5 -4 17 -1 22 1 32 4 23 2
-10 2 -28 0 -40z m20 -290 c-2 -24 -4 -7 -4 37 0 44 2 63 4 43 2 -21 2 -57 0
-80z m10 -70 c-3 -8 -6 -5 -6 6 -1 11 2 17 5 13 3 -3 4 -12 1 -19z m6 -38 c3
-11 1 -23 -4 -26 -5 -3 -9 6 -9 20 0 31 6 34 13 6z m4 -122 c-2 -13 -4 -5 -4
17 -1 22 1 32 4 23 2 -10 2 -28 0 -40z m0 -110 c-2 -18 -4 -6 -4 27 0 33 2 48
4 33 2 -15 2 -42 0 -60z"/>
<path d="M5825 8773 c7 -197 12 -234 45 -373 11 -47 27 -119 35 -160 8 -41 25
-109 36 -150 33 -121 55 -204 104 -390 57 -218 121 -550 145 -750 21 -180 8
-401 -40 -665 -11 -60 -31 -180 -45 -265 -14 -85 -38 -225 -55 -310 -16 -85
-32 -186 -35 -225 -4 -38 -11 -90 -17 -115 -9 -42 -21 -169 -35 -367 l-6 -83
29 0 c16 0 66 7 112 15 45 8 119 22 165 30 45 8 98 15 117 15 19 0 78 7 130
14 153 23 229 31 425 41 248 13 310 18 316 24 8 8 27 103 34 161 2 25 9 83 15
130 32 270 15 797 -36 1086 -54 310 -199 747 -321 974 -26 47 -60 112 -78 145
-38 74 -73 128 -115 180 -18 22 -36 49 -40 60 -5 11 -32 53 -62 92 -29 40 -80
109 -113 154 -33 45 -64 87 -70 93 -5 6 -55 72 -110 146 -139 187 -132 178
-251 343 -59 82 -113 151 -120 154 -8 3 -14 12 -14 19 0 8 -34 48 -76 90 l-76
75 7 -188z"/>
<path d="M4483 8083 c-16 -3 -23 -11 -23 -26 1 -21 1 -22 15 -3 8 11 18 17 22
13 3 -4 -2 -16 -13 -28 -21 -24 -23 -89 -4 -194 56 -321 74 -416 96 -515 14
-63 32 -138 41 -166 15 -50 17 -52 77 -73 73 -27 208 -64 291 -81 127 -25 221
-40 259 -40 36 0 38 1 21 14 -17 13 -17 14 11 27 21 10 30 22 32 44 2 17 14
84 27 150 13 66 29 152 35 190 18 118 82 340 111 389 10 17 19 53 21 80 l3 50
-100 19 c-120 22 -413 79 -545 106 -254 50 -311 57 -377 44z m549 -550 c-7
-65 -12 -67 -12 -5 0 29 4 52 9 52 5 0 6 -21 3 -47z m-18 -188 c-4 -8 -8 -15
-10 -15 -2 0 -4 7 -4 15 0 8 4 15 10 15 5 0 7 -7 4 -15z m-27 -257 c-3 -7 -5
-2 -5 12 0 14 2 19 5 13 2 -7 2 -19 0 -25z"/>
<path d="M4344 6943 c8 -77 39 -264 61 -368 28 -133 85 -440 91 -499 11 -96
49 -122 276 -192 48 -14 95 -24 103 -20 8 3 15 2 15 -3 0 -4 17 -13 38 -19 77
-23 332 -72 376 -72 l44 0 22 98 c72 326 125 530 165 638 29 79 33 100 29 155
-8 112 -12 115 -142 129 -48 6 -114 14 -147 20 -33 5 -112 17 -175 25 -63 9
-140 20 -170 26 -30 6 -80 15 -110 20 -30 6 -71 15 -90 20 -84 22 -288 82
-323 95 -68 25 -71 23 -63 -53z"/>
<path d="M3915 6577 c-55 -63 -70 -84 -174 -238 -50 -74 -113 -165 -141 -203
-27 -38 -50 -76 -50 -83 0 -7 -3 -13 -7 -13 -5 0 -30 -30 -58 -68 -27 -37 -59
-78 -72 -92 -12 -14 -37 -46 -55 -72 -107 -154 -340 -395 -521 -542 -110 -88
-153 -134 -138 -149 6 -6 25 -16 43 -23 18 -7 85 -32 148 -56 63 -24 151 -54
195 -66 112 -30 245 -64 275 -69 14 -3 66 -17 115 -33 50 -15 106 -31 125 -35
19 -4 62 -15 95 -24 33 -10 118 -29 188 -41 110 -20 130 -22 139 -9 8 11 9 11
5 -3 -5 -13 3 -17 34 -20 22 -2 39 1 39 7 0 10 -14 121 -45 360 -26 205 -43
355 -54 490 -6 72 -16 184 -22 250 -6 66 -14 268 -17 449 l-7 329 -40 -46z
m-484 -910 c-10 -9 -11 -8 -5 6 3 10 9 15 12 12 3 -3 0 -11 -7 -18z m-101
-111 c0 -2 -8 -10 -17 -17 -16 -13 -17 -12 -4 4 13 16 21 21 21 13z m280 -463
c0 -21 -5 -45 -10 -53 -7 -11 -10 0 -10 38 0 28 5 52 10 52 6 0 10 -17 10 -37z
m-13 -185 c-3 -8 -6 -5 -6 6 -1 11 2 17 5 13 3 -3 4 -12 1 -19z"/>
<path d="M5612 6220 c0 -14 2 -19 5 -12 2 6 2 18 0 25 -3 6 -5 1 -5 -13z"/>
<path d="M4194 5823 c-25 -27 -26 -31 -21 -133 3 -58 12 -136 20 -175 8 -38
31 -149 51 -245 39 -189 88 -380 130 -508 33 -98 26 -94 246 -117 164 -17 698
-30 715 -17 6 4 16 16 23 27 7 11 21 33 31 49 11 15 31 80 46 144 29 121 82
290 159 506 52 145 56 175 26 178 -11 1 -32 3 -47 4 -155 13 -473 63 -588 92
-33 8 -85 21 -115 28 -55 13 -350 107 -513 164 -109 37 -131 38 -163 3z"/>
<path d="M7385 5247 c3 -12 9 -63 12 -113 5 -77 3 -97 -15 -136 -15 -34 -27
-47 -48 -52 -16 -4 -146 -11 -289 -16 -260 -8 -538 -32 -585 -50 -14 -5 -52
-14 -85 -20 -67 -12 -174 -42 -250 -69 -27 -10 -63 -22 -80 -27 -18 -6 -32
-18 -36 -34 -9 -31 -11 -367 -3 -398 10 -35 46 -37 142 -7 48 15 92 31 97 35
6 5 53 24 105 43 52 19 133 49 180 67 47 17 96 35 110 40 14 4 102 36 195 70
94 35 211 78 260 96 50 18 140 53 200 79 61 26 117 49 125 52 24 9 198 91 288
136 90 46 206 128 222 158 9 16 5 21 -27 37 -75 38 -363 115 -472 126 -51 5
-53 5 -46 -17z m-825 -477 c0 -5 -9 -10 -21 -10 -11 0 -17 5 -14 10 3 6 13 10
21 10 8 0 14 -4 14 -10z"/>
<path d="M2213 5095 c-44 -31 -52 -127 -18 -211 16 -39 120 -198 159 -245 17
-19 46 -55 63 -80 18 -24 53 -69 79 -99 49 -59 51 -62 103 -130 19 -25 42 -52
52 -60 22 -20 119 -157 119 -170 0 -5 6 -13 13 -17 54 -34 281 -516 340 -723
42 -143 56 -200 67 -257 7 -34 20 -68 29 -76 10 -9 53 -17 121 -21 58 -3 184
-13 280 -21 274 -24 920 -30 1180 -11 118 8 231 17 250 19 224 30 291 41 384
62 61 14 153 38 205 55 53 16 159 48 236 70 77 23 183 54 235 70 153 46 396
116 520 149 166 44 211 58 345 101 66 22 143 44 170 50 28 6 61 19 75 28 14 9
41 25 60 35 19 11 46 29 60 41 14 13 41 32 61 44 38 23 130 122 186 200 18 26
46 79 62 117 17 39 59 131 94 206 35 74 67 147 71 163 8 34 37 100 78 180 29
56 57 127 98 246 16 46 38 199 23 163 -3 -9 -9 -10 -23 -1 -15 9 -29 4 -81
-32 -67 -46 -175 -101 -272 -140 -47 -18 -56 -26 -52 -41 4 -11 2 -19 -4 -19
-6 0 -11 7 -11 15 0 18 -4 18 -28 5 -25 -14 -213 -100 -219 -100 -3 0 -53 -20
-112 -44 -183 -76 -255 -104 -306 -121 -28 -9 -108 -41 -180 -70 -71 -29 -161
-65 -200 -80 -38 -15 -97 -40 -131 -56 -34 -16 -64 -29 -68 -29 -4 0 -39 -15
-79 -34 -159 -74 -383 -113 -484 -83 -51 15 -133 54 -133 62 0 3 12 2 27 -1
l28 -7 -27 32 c-28 33 -54 85 -90 181 -24 62 -64 130 -77 130 -5 0 -53 -10
-107 -21 -258 -56 -856 -28 -1198 56 -152 37 -275 63 -381 81 -81 13 -130 25
-280 69 -27 8 -104 28 -170 44 -158 39 -216 57 -425 130 -200 69 -184 63 -480
175 -106 40 -198 48 -237 21z m1195 -1880 c-3 -3 -9 2 -12 12 -6 14 -5 15 5 6
7 -7 10 -15 7 -18z m1245 -12 c-7 -2 -21 -2 -30 0 -10 3 -4 5 12 5 17 0 24 -2
18 -5z"/>
<path d="M5740 4810 c-14 -132 -18 -142 -72 -192 l-39 -36 20 -44 c11 -24 23
-68 27 -96 4 -36 11 -52 21 -52 11 0 14 -8 11 -30 -5 -32 5 -40 52 -40 34 0
58 -33 41 -54 -6 -7 -8 -16 -4 -19 10 -10 68 -8 97 3 24 9 26 13 21 67 -2 32
-7 128 -10 213 -6 177 -19 278 -40 320 -8 16 -15 39 -15 52 0 21 -5 23 -49 23
l-48 0 -13 -115z m97 -106 c-3 -3 -12 -4 -19 -1 -8 3 -5 6 6 6 11 1 17 -2 13
-5z m30 -420 c-3 -3 -12 -4 -19 -1 -8 3 -5 6 6 6 11 1 17 -2 13 -5z"/>
</g>
</svg>
